<svg width="68" height="24" viewBox="0 0 68 24" fill="none" xmlns="http://www.w3.org/2000/svg">
<path d="M9.58011 20.7476H7.64363L6.58286 17.4965H2.89578L1.88532 20.7476H0L3.65298 9.67945H5.90923L9.58011 20.7476ZM6.2631 16.1325L5.30381 13.2424C5.20234 12.9472 5.01219 12.2519 4.73165 11.1574H4.69754C4.58583 11.6281 4.40591 12.3234 4.15863 13.2424L3.21639 16.1325H6.2631Z" fill="white"/>
<path d="M18.9744 16.6595C18.9744 18.0168 18.5984 19.0897 17.8463 19.8773C17.1727 20.5784 16.3362 20.9286 15.3377 20.9286C14.2598 20.9286 13.4856 20.551 13.014 19.7958H12.9799V24H11.162V15.3945C11.162 14.5412 11.1389 13.6654 11.0946 12.7672H12.6934L12.7949 14.0322H12.829C13.4353 13.0791 14.3553 12.6034 15.5901 12.6034C16.5553 12.6034 17.3611 12.9751 18.0058 13.7195C18.6521 14.4647 18.9744 15.4444 18.9744 16.6595ZM17.1224 16.7244C17.1224 15.9476 16.9433 15.3072 16.5835 14.8032C16.1904 14.2776 15.6625 14.0147 15.0008 14.0147C14.5523 14.0147 14.1447 14.1611 13.7806 14.4497C13.4157 14.7408 13.1769 15.1209 13.0652 15.5916C13.0089 15.8112 12.9808 15.9908 12.9808 16.1322V17.4629C12.9808 18.0434 13.1633 18.5333 13.5282 18.9333C13.8932 19.3334 14.3673 19.533 14.9505 19.533C15.6353 19.533 16.1682 19.2752 16.5493 18.7612C16.9314 18.2464 17.1224 17.5677 17.1224 16.7244Z" fill="white"/>
<path d="M28.3856 16.6595C28.3856 18.0168 28.0096 19.0897 27.2567 19.8773C26.5839 20.5784 25.7474 20.9286 24.7488 20.9286C23.671 20.9286 22.8968 20.551 22.4261 19.7958H22.392V24H20.574V15.3945C20.574 14.5412 20.551 13.6654 20.5067 12.7672H22.1055L22.2069 14.0322H22.241C22.8465 13.0791 23.7665 12.6034 25.0021 12.6034C25.9665 12.6034 26.7723 12.9751 27.4187 13.7195C28.0625 14.4647 28.3856 15.4444 28.3856 16.6595ZM26.5336 16.7244C26.5336 15.9476 26.3536 15.3072 25.9938 14.8032C25.6007 14.2776 25.0746 14.0147 24.412 14.0147C23.9627 14.0147 23.5559 14.1611 23.191 14.4497C22.826 14.7408 22.5881 15.1209 22.4764 15.5916C22.421 15.8112 22.392 15.9908 22.392 16.1322V17.4629C22.392 18.0434 22.5745 18.5333 22.9377 18.9333C23.3027 19.3326 23.7768 19.533 24.3617 19.533C25.0464 19.533 25.5794 19.2752 25.9605 18.7612C26.3426 18.2464 26.5336 17.5677 26.5336 16.7244Z" fill="white"/>
<path d="M38.9078 17.6442C38.9078 18.5857 38.5726 19.3517 37.8999 19.943C37.1606 20.5892 36.1314 20.9119 34.8088 20.9119C33.5877 20.9119 32.6088 20.6824 31.8678 20.2225L32.2891 18.7445C33.0872 19.2153 33.9629 19.4515 34.9171 19.4515C35.6018 19.4515 36.1348 19.3001 36.5176 18.999C36.8988 18.698 37.0889 18.2938 37.0889 17.7898C37.0889 17.3407 36.932 16.9622 36.6174 16.6553C36.3044 16.3485 35.7817 16.0632 35.0518 15.7995C33.065 15.0768 32.0725 14.0181 32.0725 12.6258C32.0725 11.7159 32.4204 10.9699 33.117 10.3894C33.8111 9.80805 34.7372 9.51779 35.8951 9.51779C36.9278 9.51779 37.7856 9.69327 38.4703 10.0434L38.0158 11.4889C37.3763 11.1496 36.6532 10.9799 35.844 10.9799C35.2045 10.9799 34.7048 11.1338 34.3466 11.4398C34.0439 11.7134 33.8922 12.047 33.8922 12.442C33.8922 12.8795 34.0653 13.2413 34.4132 13.5257C34.7159 13.7885 35.2659 14.0729 36.064 14.3798C37.0403 14.7633 37.7575 15.2115 38.2188 15.7255C38.6784 16.2378 38.9078 16.8791 38.9078 17.6442Z" fill="white"/>
<path d="M44.919 14.0975H42.9151V17.9724C42.9151 18.9579 43.2682 19.4503 43.9759 19.4503C44.3008 19.4503 44.5702 19.4228 44.7834 19.3679L44.8337 20.7144C44.4756 20.845 44.004 20.9107 43.4199 20.9107C42.702 20.9107 42.1409 20.697 41.7359 20.2703C41.3325 19.8428 41.1296 19.1259 41.1296 18.1187V14.0958H39.9358V12.7651H41.1296V11.3039L42.9151 10.7782V12.7651H44.919V14.0975Z" fill="white"/>
<path d="M53.96 16.6911C53.96 17.9179 53.6001 18.925 52.8821 19.7126C52.1292 20.5235 51.1298 20.9277 49.884 20.9277C48.6834 20.9277 47.7276 20.5393 47.0147 19.7625C46.3018 18.9857 45.9454 18.0052 45.9454 16.8234C45.9454 15.5866 46.3121 14.5736 47.0479 13.786C47.7821 12.9976 48.773 12.6034 50.0188 12.6034C51.2194 12.6034 52.1855 12.9918 52.9145 13.7694C53.612 14.5237 53.96 15.4976 53.96 16.6911ZM52.0738 16.7485C52.0738 16.0125 51.9126 15.3812 51.586 14.8547C51.2049 14.2177 50.66 13.9 49.954 13.9C49.2232 13.9 48.6681 14.2185 48.2869 14.8547C47.9603 15.382 47.7992 16.0233 47.7992 16.7818C47.7992 17.5178 47.9603 18.1491 48.2869 18.6747C48.68 19.3118 49.2292 19.6295 49.9378 19.6295C50.6319 19.6295 51.1767 19.3051 51.5698 18.6581C51.9049 18.1216 52.0738 17.4837 52.0738 16.7485Z" fill="white"/>
<path d="M59.8692 14.3266C59.6893 14.2942 59.4974 14.2776 59.2962 14.2776C58.6567 14.2776 58.1621 14.5129 57.8142 14.9845C57.5115 15.4003 57.3597 15.926 57.3597 16.5605V20.7481H55.5426L55.5596 15.2806C55.5596 14.3607 55.5366 13.5232 55.4914 12.768H57.0749L57.1414 14.295H57.1917C57.3836 13.7702 57.6863 13.3477 58.1007 13.0308C58.5057 12.7456 58.9432 12.6034 59.4147 12.6034C59.5827 12.6034 59.7345 12.615 59.8692 12.6358V14.3266Z" fill="white"/>
<path d="M68 16.3803C68 16.698 67.9787 16.9658 67.9335 17.1846H62.4796C62.5009 17.973 62.7644 18.576 63.2709 18.9918C63.7305 19.3636 64.3249 19.5499 65.0548 19.5499C65.8623 19.5499 66.599 19.4243 67.2616 19.1723L67.5464 20.4032C66.7721 20.7326 65.858 20.8964 64.8032 20.8964C63.5344 20.8964 62.5385 20.5321 61.8137 19.8044C61.0906 19.0767 60.7282 18.0994 60.7282 16.8735C60.7282 15.6701 61.065 14.6679 61.7395 13.8686C62.4455 13.0153 63.3997 12.5887 64.6003 12.5887C65.7796 12.5887 66.6723 13.0153 67.2786 13.8686C67.7587 14.5465 68 15.3848 68 16.3803ZM66.2665 15.9204C66.2784 15.3948 66.1599 14.9407 65.9134 14.5573C65.5988 14.0641 65.1153 13.8179 64.4647 13.8179C63.8704 13.8179 63.3869 14.0583 63.0177 14.5406C62.715 14.924 62.535 15.384 62.4796 15.9196L66.2665 15.9204Z" fill="white"/>
<path d="M5.66232 2.87275C5.66232 3.85164 5.36132 4.58852 4.76016 5.08338C4.20334 5.53997 3.41203 5.76869 2.38708 5.76869C1.87887 5.76869 1.44399 5.74707 1.07989 5.70382V0.355221C1.55485 0.280369 2.06647 0.242112 2.61902 0.242112C3.59537 0.242112 4.33125 0.449202 4.82752 0.863384C5.38348 1.33163 5.66232 2.00114 5.66232 2.87275ZM4.72008 2.89687C4.72008 2.26229 4.54784 1.77575 4.20334 1.43642C3.85885 1.09792 3.35576 0.928256 2.69321 0.928256C2.41181 0.928256 2.1722 0.946553 1.97352 0.98481V5.05094C2.08352 5.06758 2.28476 5.07506 2.57724 5.07506C3.26111 5.07506 3.78893 4.88959 4.16071 4.51866C4.53249 4.14773 4.72008 3.60713 4.72008 2.89687Z" fill="white"/>
<path d="M10.6584 3.72723C10.6584 4.33021 10.4819 4.82423 10.1288 5.2118C9.75876 5.61018 9.26846 5.80895 8.65622 5.80895C8.06615 5.80895 7.59631 5.6185 7.24585 5.23592C6.89624 4.85417 6.72143 4.37263 6.72143 3.79211C6.72143 3.18497 6.90135 2.68679 7.2629 2.30006C7.62444 1.91332 8.11049 1.71954 8.72273 1.71954C9.3128 1.71954 9.7869 1.90999 10.1459 2.29174C10.487 2.66267 10.6584 3.14172 10.6584 3.72723ZM9.73147 3.75551C9.73147 3.39373 9.65132 3.08351 9.49187 2.82485C9.30427 2.51214 9.03738 2.35578 8.69033 2.35578C8.33134 2.35578 8.05847 2.51214 7.87088 2.82485C7.71057 3.08351 7.63127 3.39872 7.63127 3.77131C7.63127 4.1331 7.71142 4.44332 7.87088 4.70197C8.06444 5.01469 8.33389 5.17105 8.6818 5.17105C9.02288 5.17105 9.29063 5.0122 9.48334 4.69366C9.64876 4.43001 9.73147 4.1173 9.73147 3.75551Z" fill="white"/>
<path d="M17.3574 1.79805L16.0997 5.71863H15.2811L14.7601 4.01616C14.6279 3.59117 14.5205 3.16867 14.4369 2.7495H14.4207C14.3431 3.18032 14.2357 3.60198 14.0976 4.01616L13.5442 5.71863H12.7162L11.5335 1.79805H12.4518L12.9063 3.66186C13.0163 4.10266 13.1067 4.52266 13.1792 4.92021H13.1954C13.2619 4.59253 13.3719 4.17502 13.5271 3.67018L14.0976 1.79888H14.8258L15.3723 3.63026C15.5045 4.07688 15.612 4.50686 15.6947 4.92104H15.7194C15.7799 4.51767 15.8712 4.08769 15.9923 3.63026L16.48 1.79888L17.3574 1.79805Z" fill="white"/>
<path d="M21.9897 5.71975H21.0961V3.47419C21.0961 2.78222 20.8266 2.43624 20.286 2.43624C20.0208 2.43624 19.8068 2.53105 19.6405 2.72151C19.4759 2.91197 19.3924 3.13652 19.3924 3.39352V5.71892H18.4987V2.91945C18.4987 2.57513 18.4877 2.2017 18.4663 1.7975H19.2517L19.2935 2.41046H19.3182C19.4222 2.22 19.5774 2.06281 19.7812 1.93723C20.0234 1.79085 20.2945 1.71683 20.5913 1.71683C20.9665 1.71683 21.2785 1.83493 21.5267 2.07196C21.8354 2.36222 21.9897 2.79553 21.9897 3.37106V5.71975Z" fill="white"/>
<path d="M24.4542 5.71953H23.5614V0H24.4542V5.71953Z" fill="white"/>
<path d="M29.7152 3.72723C29.7152 4.33021 29.5387 4.82423 29.1857 5.2118C28.8156 5.61018 28.3244 5.80895 27.7131 5.80895C27.1221 5.80895 26.6523 5.6185 26.3027 5.23592C25.9531 4.85417 25.7783 4.37263 25.7783 3.79211C25.7783 3.18497 25.9582 2.68679 26.3197 2.30006C26.6813 1.91332 27.1673 1.71954 27.7787 1.71954C28.3696 1.71954 28.8429 1.90999 29.2027 2.29174C29.5438 2.66267 29.7152 3.14172 29.7152 3.72723ZM28.7875 3.75551C28.7875 3.39373 28.7073 3.08351 28.5478 2.82485C28.3611 2.51214 28.0934 2.35578 27.7472 2.35578C27.3873 2.35578 27.1145 2.51214 26.9277 2.82485C26.7674 3.08351 26.6881 3.39872 26.6881 3.77131C26.6881 4.1331 26.7683 4.44332 26.9277 4.70197C27.1213 5.01469 27.3907 5.17105 27.7386 5.17105C28.0797 5.17105 28.3466 5.0122 28.5393 4.69366C28.7056 4.43001 28.7875 4.1173 28.7875 3.75551Z" fill="white"/>
<path d="M34.0397 5.71996H33.2373L33.1708 5.26835H33.1461C32.8715 5.62848 32.4801 5.80895 31.9719 5.80895C31.5924 5.80895 31.2855 5.69002 31.0544 5.45382C30.8446 5.23925 30.7397 4.97227 30.7397 4.6554C30.7397 4.17635 30.9444 3.81123 31.3562 3.5584C31.7673 3.30557 32.3454 3.18165 33.0898 3.18747V3.11428C33.0898 2.5978 32.8118 2.33998 32.255 2.33998C31.8585 2.33998 31.5089 2.43728 31.207 2.63024L31.0254 2.05803C31.3989 1.83265 31.8602 1.71954 32.4042 1.71954C33.4548 1.71954 33.9817 2.26013 33.9817 3.34133V4.78514C33.9817 5.17687 34.0013 5.48875 34.0397 5.71996ZM33.112 4.37263V3.76799C32.1262 3.75135 31.6334 4.015 31.6334 4.55809C31.6334 4.76269 31.6897 4.91572 31.8048 5.01802C31.9199 5.12031 32.0666 5.17105 32.2414 5.17105C32.4375 5.17105 32.6208 5.11033 32.7879 4.98974C32.9559 4.86831 33.0591 4.71445 33.0975 4.52566C33.1068 4.48324 33.112 4.43168 33.112 4.37263Z" fill="white"/>
<path d="M39.1183 5.71953H38.3253L38.2835 5.08994H38.2588C38.0055 5.56899 37.5741 5.80852 36.9678 5.80852C36.4835 5.80852 36.0801 5.62305 35.7604 5.25212C35.4406 4.88119 35.2812 4.39964 35.2812 3.80831C35.2812 3.17373 35.4543 2.65974 35.8022 2.26719C36.139 1.90124 36.5517 1.71827 37.0428 1.71827C37.5826 1.71827 37.9604 1.89542 38.1752 2.25055H38.1923V0H39.0868V4.66328C39.0868 5.04503 39.097 5.39683 39.1183 5.71953ZM38.1923 4.06613V3.41242C38.1923 3.29931 38.1838 3.20783 38.1676 3.13796C38.1172 2.92838 38.009 2.75206 37.8444 2.60984C37.6781 2.46762 37.4777 2.3961 37.2466 2.3961C36.9132 2.3961 36.6523 2.52501 36.4604 2.78366C36.2703 3.04232 36.1739 3.3725 36.1739 3.77587C36.1739 4.16344 36.2652 4.47782 36.4485 4.71984C36.6421 4.97766 36.903 5.10657 37.2296 5.10657C37.5229 5.10657 37.7574 4.99929 37.9356 4.78388C38.1079 4.5851 38.1923 4.34558 38.1923 4.06613Z" fill="white"/>
<path d="M46.761 3.72723C46.761 4.33021 46.5845 4.82423 46.2315 5.2118C45.8614 5.61018 45.372 5.80895 44.7589 5.80895C44.1697 5.80895 43.6998 5.6185 43.3485 5.23592C42.9989 4.85417 42.8241 4.37263 42.8241 3.79211C42.8241 3.18497 43.004 2.68679 43.3656 2.30006C43.7271 1.91332 44.2132 1.71954 44.8262 1.71954C45.4155 1.71954 45.8904 1.90999 46.2486 2.29174C46.5896 2.66267 46.761 3.14172 46.761 3.72723ZM45.835 3.75551C45.835 3.39373 45.7548 3.08351 45.5954 2.82485C45.4069 2.51214 45.1409 2.35578 44.793 2.35578C44.4349 2.35578 44.162 2.51214 43.9735 2.82485C43.8132 3.08351 43.7339 3.39872 43.7339 3.77131C43.7339 4.1331 43.8141 4.44332 43.9735 4.70197C44.1671 5.01469 44.4366 5.17105 44.7845 5.17105C45.1255 5.17105 45.3941 5.0122 45.5869 4.69366C45.7514 4.43001 45.835 4.1173 45.835 3.75551Z" fill="white"/>
<path d="M51.5656 5.71975H50.6728V3.47419C50.6728 2.78222 50.4033 2.43624 49.8619 2.43624C49.5967 2.43624 49.3827 2.53105 49.2172 2.72151C49.0518 2.91197 48.9691 3.13652 48.9691 3.39352V5.71892H48.0746V2.91945C48.0746 2.57513 48.0644 2.2017 48.0431 1.7975H48.8276L48.8693 2.41046H48.8941C48.9989 2.22 49.1541 2.06281 49.3571 1.93723C49.6001 1.79085 49.8704 1.71683 50.168 1.71683C50.5423 1.71683 50.8544 1.83493 51.1026 2.07196C51.4121 2.36222 51.5656 2.79553 51.5656 3.37106V5.71975Z" fill="white"/>
<path d="M57.5798 2.45269H56.5958V4.35726C56.5958 4.8413 56.7706 5.08333 57.1168 5.08333C57.2771 5.08333 57.4101 5.07002 57.515 5.04257L57.538 5.70377C57.3615 5.76864 57.1296 5.80107 56.8439 5.80107C56.4909 5.80107 56.2164 5.69628 56.0177 5.4867C55.8181 5.27711 55.7192 4.92447 55.7192 4.42962V2.45269H55.1317V1.79982H55.7192V1.08124L56.595 0.823413V1.79898H57.579L57.5798 2.45269Z" fill="white"/>
<path d="M62.3112 5.71953H61.4168V3.4906C61.4168 2.78782 61.1473 2.43602 60.6075 2.43602C60.1931 2.43602 59.91 2.63978 59.7548 3.04731C59.7284 3.13297 59.713 3.23777 59.713 3.36086V5.7187H58.8203V0H59.713V2.36283H59.7301C60.0115 1.93285 60.4148 1.71827 60.9375 1.71827C61.3076 1.71827 61.6137 1.83637 61.8568 2.0734C62.1595 2.36865 62.3112 2.80778 62.3112 3.3883V5.71953Z" fill="white"/>
<path d="M67.1905 3.57357C67.1905 3.72992 67.1786 3.86133 67.1573 3.96862H64.4772C64.4892 4.35619 64.6171 4.65144 64.8652 4.85603C65.092 5.039 65.3845 5.13049 65.7426 5.13049C66.1391 5.13049 66.5007 5.06894 66.8264 4.94502L66.9663 5.55049C66.5851 5.71184 66.1366 5.79251 65.6173 5.79251C64.9948 5.79251 64.5045 5.6137 64.1498 5.25607C63.7934 4.89845 63.6168 4.41856 63.6168 3.81642C63.6168 3.22509 63.7814 2.73273 64.1131 2.34017C64.4593 1.921 64.9275 1.71141 65.5184 1.71141C66.0965 1.71141 66.5357 1.921 66.8324 2.34017C67.072 2.67285 67.1905 3.08453 67.1905 3.57357ZM66.3378 3.34818C66.3446 3.08952 66.2858 2.86663 66.1647 2.67867C66.0095 2.43665 65.7733 2.31522 65.4536 2.31522C65.1619 2.31522 64.924 2.43332 64.7424 2.67035C64.594 2.85915 64.5062 3.08453 64.4772 3.34818H66.3378Z" fill="white"/>
</svg>
