<?xml version="1.0" encoding="UTF-8"?>
<svg xmlns="http://www.w3.org/2000/svg" xmlns:xlink="http://www.w3.org/1999/xlink" viewBox="0 0 20 20" width="20px" height="20px">
<g id="surface8200577">
<path style=" stroke:none;fill-rule:nonzero;fill:rgb(100%,100%,100%);fill-opacity:1;" d="M 10 2 C 5.582031 2 2 5.582031 2 10 C 2 14.011719 4.953125 17.324219 8.804688 17.902344 L 8.804688 12.121094 L 6.824219 12.121094 L 6.824219 10.015625 L 8.804688 10.015625 L 8.804688 8.617188 C 8.804688 6.300781 9.933594 5.285156 11.859375 5.285156 C 12.78125 5.285156 13.269531 5.351562 13.5 5.382812 L 13.5 7.21875 L 12.183594 7.21875 C 11.367188 7.21875 11.082031 7.996094 11.082031 8.867188 L 11.082031 10.015625 L 13.476562 10.015625 L 13.152344 12.121094 L 11.082031 12.121094 L 11.082031 17.917969 C 14.988281 17.386719 18 14.050781 18 10 C 18 5.582031 14.417969 2 10 2 Z M 10 2 "/>
</g>
</svg>
