<?xml version="1.0" encoding="UTF-8"?>
<svg xmlns="http://www.w3.org/2000/svg" xmlns:xlink="http://www.w3.org/1999/xlink" viewBox="0 0 20 20" width="20px" height="20px">
<g id="surface8291116">
<path style=" stroke:none;fill-rule:nonzero;fill:rgb(100%,100%,100%);fill-opacity:1;" d="M 6.667969 2.5 C 4.371094 2.5 2.5 4.371094 2.5 6.667969 L 2.5 13.332031 C 2.5 15.628906 4.371094 17.5 6.667969 17.5 L 13.332031 17.5 C 15.628906 17.5 17.5 15.628906 17.5 13.332031 L 17.5 6.667969 C 17.5 4.371094 15.628906 2.5 13.332031 2.5 Z M 6.667969 4.167969 L 13.332031 4.167969 C 14.710938 4.167969 15.832031 5.289062 15.832031 6.667969 L 15.832031 13.332031 C 15.832031 14.710938 14.710938 15.832031 13.332031 15.832031 L 6.667969 15.832031 C 5.289062 15.832031 4.167969 14.710938 4.167969 13.332031 L 4.167969 6.667969 C 4.167969 5.289062 5.289062 4.167969 6.667969 4.167969 Z M 14.167969 5 C 13.707031 5 13.332031 5.375 13.332031 5.832031 C 13.332031 6.292969 13.707031 6.667969 14.167969 6.667969 C 14.625 6.667969 15 6.292969 15 5.832031 C 15 5.375 14.625 5 14.167969 5 Z M 10 5.832031 C 7.703125 5.832031 5.832031 7.703125 5.832031 10 C 5.832031 12.296875 7.703125 14.167969 10 14.167969 C 12.296875 14.167969 14.167969 12.296875 14.167969 10 C 14.167969 7.703125 12.296875 5.832031 10 5.832031 Z M 10 7.5 C 11.378906 7.5 12.5 8.621094 12.5 10 C 12.5 11.378906 11.378906 12.5 10 12.5 C 8.621094 12.5 7.5 11.378906 7.5 10 C 7.5 8.621094 8.621094 7.5 10 7.5 Z M 10 7.5 "/>
</g>
</svg>
