<?xml version="1.0" encoding="UTF-8"?>
<svg xmlns="http://www.w3.org/2000/svg" xmlns:xlink="http://www.w3.org/1999/xlink" viewBox="0 0 20 20" width="20px" height="20px">
<g id="surface8305228">
<path style=" stroke:none;fill-rule:nonzero;fill:rgb(100%,100%,100%);fill-opacity:1;" d="M 16 2.667969 L 4 2.667969 C 3.261719 2.667969 2.667969 3.261719 2.667969 4 L 2.667969 16 C 2.667969 16.738281 3.261719 17.332031 4 17.332031 L 16 17.332031 C 16.738281 17.332031 17.332031 16.738281 17.332031 16 L 17.332031 4 C 17.332031 3.261719 16.738281 2.667969 16 2.667969 Z M 7.300781 14.667969 L 5.335938 14.667969 L 5.335938 8.339844 L 7.300781 8.339844 Z M 6.300781 7.433594 C 5.664062 7.433594 5.152344 6.921875 5.152344 6.289062 C 5.152344 5.65625 5.664062 5.140625 6.300781 5.140625 C 6.929688 5.140625 7.445312 5.65625 7.445312 6.289062 C 7.445312 6.921875 6.929688 7.433594 6.300781 7.433594 Z M 14.667969 14.667969 L 12.703125 14.667969 L 12.703125 11.589844 C 12.703125 10.855469 12.691406 9.910156 11.683594 9.910156 C 10.660156 9.910156 10.5 10.710938 10.5 11.535156 L 10.5 14.667969 L 8.535156 14.667969 L 8.535156 8.339844 L 10.421875 8.339844 L 10.421875 9.203125 L 10.449219 9.203125 C 10.710938 8.707031 11.351562 8.179688 12.308594 8.179688 C 14.300781 8.179688 14.667969 9.492188 14.667969 11.195312 Z M 14.667969 14.667969 "/>
</g>
</svg>
