<svg width="18" height="21" viewBox="0 0 18 21" fill="none" xmlns="http://www.w3.org/2000/svg">
<path d="M14.3021 10.9128C14.2782 8.32034 16.4792 7.0591 16.5799 7.00038C15.3333 5.22836 13.4012 4.98625 12.7222 4.96695C11.0995 4.80044 9.5254 5.91368 8.69876 5.91368C7.85562 5.91368 6.58266 4.98303 5.21071 5.01038C3.44523 5.03693 1.7936 6.03353 0.887767 7.58113C-0.981658 10.7366 0.412573 15.3738 2.20362 17.9244C3.09956 19.1736 4.14647 20.5684 5.51678 20.5193C6.85738 20.4654 7.35815 19.686 8.97596 19.686C10.5789 19.686 11.0492 20.5193 12.4467 20.4879C13.8855 20.4654 14.7913 19.2331 15.6559 17.9727C16.6912 16.5409 17.107 15.1309 17.1235 15.0585C17.0897 15.0472 14.3293 14.0201 14.3021 10.9128Z" fill="white"/>
<path d="M11.6621 3.28904C12.3832 2.40987 12.8765 1.21378 12.7396 0C11.6959 0.0450444 10.3908 0.703819 9.63925 1.56368C8.97431 2.32139 8.38031 3.56333 8.53376 4.73127C9.70607 4.81653 10.9097 4.15454 11.6621 3.28904Z" fill="white"/>
</svg>
