<svg width="71" height="23" viewBox="0 0 71 23" fill="none" xmlns="http://www.w3.org/2000/svg">
<path d="M5.33931 2.76209C5.33931 3.44469 5.12999 3.99138 4.71762 4.39911C4.2435 4.88245 3.626 5.12565 2.86929 5.12565C2.14607 5.12565 1.52856 4.87836 1.022 4.39093C0.514388 3.89635 0.261108 3.28937 0.261108 2.56282C0.261108 1.83628 0.514388 1.2293 1.022 0.738805C1.52856 0.24729 2.14607 0 2.86929 0C3.22933 0 3.57261 0.0725521 3.90021 0.207438C4.22675 0.343345 4.49259 0.527279 4.68517 0.754132L4.24769 1.18536C3.91172 0.798073 3.45435 0.606985 2.86929 0.606985C2.34179 0.606985 1.88442 0.786832 1.49612 1.14959C1.11201 1.51337 0.919431 1.98445 0.919431 2.56282C0.919431 3.1412 1.11201 3.61636 1.49612 3.98014C1.88442 4.33881 2.34179 4.52275 2.86929 4.52275C3.42923 4.52275 3.90021 4.33881 4.27176 3.97605C4.51667 3.73592 4.65587 3.40484 4.6925 2.98179H2.86929V2.39115H5.30163C5.33094 2.51888 5.33931 2.64253 5.33931 2.76209Z" fill="white"/>
<path d="M9.19837 0.713447H6.9136V2.26667H8.97335V2.85731H6.9136V4.41053H9.19837V5.01241H6.26678V0.111572H9.19837V0.713447Z" fill="white"/>
<path d="M11.922 5.01241H11.2751V0.713447H9.87372V0.111572H13.3244V0.713447H11.922V5.01241Z" fill="white"/>
<path d="M15.8217 5.01241V0.111572H16.4675V5.01241H15.8217Z" fill="white"/>
<path d="M19.3291 5.01241H18.6875V0.713447H17.2809V0.111572H20.7358V0.713447H19.3291V5.01241Z" fill="white"/>
<path d="M27.2696 4.38276C26.7745 4.87836 26.1612 5.12565 25.4296 5.12565C24.6938 5.12565 24.0805 4.87836 23.5855 4.38276C23.0915 3.88818 22.8455 3.28119 22.8455 2.56282C22.8455 1.84446 23.0915 1.23747 23.5855 0.742892C24.0805 0.24729 24.6938 0 25.4296 0C26.157 0 26.7704 0.24729 27.2654 0.746979C27.7636 1.24565 28.0096 1.84854 28.0096 2.56282C28.0096 3.28119 27.7636 3.88818 27.2696 4.38276ZM24.0638 3.97197C24.4364 4.33882 24.8896 4.52275 25.4296 4.52275C25.9655 4.52275 26.4229 4.33882 26.7913 3.97197C27.1628 3.60512 27.3512 3.13404 27.3512 2.56282C27.3512 1.9916 27.1628 1.52053 26.7913 1.15368C26.4229 0.786832 25.9655 0.602897 25.4296 0.602897C24.8896 0.602897 24.4364 0.786832 24.0638 1.15368C23.6922 1.52053 23.5038 1.9916 23.5038 2.56282C23.5038 3.13404 23.6922 3.60512 24.0638 3.97197Z" fill="white"/>
<path d="M28.9172 5.01241V0.111572H29.7022L32.1429 3.92311H32.1712L32.1429 2.98095V0.111572H32.7887V5.01241H32.1147L29.5588 1.01285H29.5306L29.5588 1.95909V5.01241H28.9172Z" fill="white"/>
<path d="M22.6865 12.1704C20.7199 12.1704 19.1134 13.6317 19.1134 15.6478C19.1134 17.6476 20.7199 19.1242 22.6865 19.1242C24.6573 19.1242 26.2639 17.6476 26.2639 15.6478C26.2639 13.6317 24.6573 12.1704 22.6865 12.1704ZM22.6865 17.7549C21.6075 17.7549 20.6791 16.8853 20.6791 15.6478C20.6791 14.394 21.6075 13.5397 22.6865 13.5397C23.7656 13.5397 24.6981 14.394 24.6981 15.6478C24.6981 16.8853 23.7656 17.7549 22.6865 17.7549ZM14.8903 12.1704C12.9195 12.1704 11.3171 13.6317 11.3171 15.6478C11.3171 17.6476 12.9195 19.1242 14.8903 19.1242C16.86 19.1242 18.4634 17.6476 18.4634 15.6478C18.4634 13.6317 16.86 12.1704 14.8903 12.1704ZM14.8903 17.7549C13.8102 17.7549 12.8787 16.8853 12.8787 15.6478C12.8787 14.394 13.8102 13.5397 14.8903 13.5397C15.9693 13.5397 16.8977 14.394 16.8977 15.6478C16.8977 16.8853 15.9693 17.7549 14.8903 17.7549ZM5.61302 13.2362V14.7138H9.227C9.12129 15.5395 8.83871 16.1465 8.40541 16.5695C7.87791 17.0805 7.05631 17.6476 5.61302 17.6476C3.38896 17.6476 1.64738 15.8951 1.64738 13.7237C1.64738 11.5522 3.38896 9.79972 5.61302 9.79972C6.81559 9.79972 7.69057 10.2585 8.33633 10.8533L9.40284 9.81199C8.4996 8.96997 7.29808 8.32314 5.61302 8.32314C2.56317 8.32314 0 10.746 0 13.7237C0 16.7014 2.56317 19.1242 5.61302 19.1242C7.26145 19.1242 8.4996 18.5969 9.47296 17.6078C10.4704 16.6339 10.7812 15.2646 10.7812 14.159C10.7812 13.8156 10.7519 13.4999 10.6996 13.2362H5.61302ZM43.5488 14.3817C43.2547 13.6041 42.3473 12.1704 40.499 12.1704C38.6674 12.1704 37.1425 13.5796 37.1425 15.6478C37.1425 17.5955 38.6517 19.1242 40.6748 19.1242C42.3107 19.1242 43.2547 18.1504 43.643 17.5832L42.4289 16.7933C42.0239 17.3717 41.4723 17.7549 40.6748 17.7549C39.8825 17.7549 39.3142 17.4003 38.95 16.7014L43.7131 14.7772L43.5488 14.3817ZM38.6925 15.5395C38.6517 14.1988 39.759 13.5121 40.5524 13.5121C41.174 13.5121 41.7015 13.8156 41.8774 14.2499L38.6925 15.5395ZM34.8211 18.9127H36.3868V8.69407H34.8211V18.9127ZM32.2568 12.945H32.2045C31.8528 12.5383 31.182 12.1704 30.3321 12.1704C28.5487 12.1704 26.918 13.6991 26.918 15.6591C26.918 17.6078 28.5487 19.1242 30.3321 19.1242C31.182 19.1242 31.8528 18.7533 32.2045 18.3343H32.2568V18.833C32.2568 20.1624 31.5294 20.8767 30.3562 20.8767C29.3996 20.8767 28.8061 20.2023 28.5612 19.6351L27.1996 20.19C27.5921 21.1117 28.6313 22.246 30.3562 22.246C32.1919 22.246 33.7409 21.1914 33.7409 18.6255V12.382H32.2568V12.945ZM30.4661 17.7549C29.387 17.7549 28.4838 16.873 28.4838 15.6591C28.4838 14.4339 29.387 13.5397 30.4661 13.5397C31.5294 13.5397 32.3678 14.4339 32.3678 15.6591C32.3678 16.873 31.5294 17.7549 30.4661 17.7549ZM50.8793 8.69407H47.1345V18.9127H48.6961V15.0408H50.8793C52.6136 15.0408 54.3144 13.8156 54.3144 11.8669C54.3144 9.91928 52.6094 8.69407 50.8793 8.69407ZM50.9202 13.6194H48.6961V10.1155H50.9202C52.0861 10.1155 52.7518 11.0607 52.7518 11.8669C52.7518 12.6579 52.0861 13.6194 50.9202 13.6194ZM60.5731 12.151C59.4449 12.151 58.2716 12.6374 57.7891 13.7155L59.1749 14.2826C59.4732 13.7155 60.0216 13.5316 60.6014 13.5316C61.4115 13.5316 62.2331 14.0067 62.2456 14.8457V14.953C61.9631 14.7936 61.3581 14.5575 60.614 14.5575C59.1215 14.5575 57.6007 15.3597 57.6007 16.8567C57.6007 18.226 58.8232 19.1078 60.1974 19.1078C61.2482 19.1078 61.828 18.6449 62.1923 18.1064H62.2456V18.8963H63.7538V14.9765C63.7538 13.1647 62.3681 12.151 60.5731 12.151ZM60.3848 17.7508C59.874 17.7508 59.1623 17.5035 59.1623 16.8853C59.1623 16.0944 60.0498 15.7909 60.8181 15.7909C61.5057 15.7909 61.828 15.9391 62.2456 16.1342C62.1232 17.0805 61.289 17.7508 60.3848 17.7508ZM69.2486 12.3748L67.4536 16.8046H67.4003L65.5446 12.3748H63.8606L66.6488 18.5652L65.0579 22.0099H66.6896L70.986 12.3748H69.2486ZM55.1726 18.9127H56.7383V8.69407H55.1726V18.9127Z" fill="white"/>
</svg>
