<svg width="20" height="22" viewBox="0 0 20 22" fill="none" xmlns="http://www.w3.org/2000/svg">
<path d="M0.388295 0.324521C0.14234 0.575899 0 0.96727 0 1.47411V19.5529C0 20.0597 0.14234 20.4511 0.388295 20.7024L0.449 20.7576L10.8252 10.631V10.3919L0.449 0.265254L0.388295 0.324521Z" fill="url(#paint0_linear_1275_2135)"/>
<path d="M14.2801 14.0086L10.8252 10.6314V10.3922L14.2843 7.015L14.3617 7.05894L18.4582 9.33462C19.6273 9.98044 19.6273 11.0432 18.4582 11.6931L14.3617 13.9647L14.2801 14.0086Z" fill="url(#paint1_linear_1275_2135)"/>
<path d="M14.3611 13.9645L10.8246 10.5117L0.387695 20.7027C0.775992 21.1012 1.4092 21.1492 2.12927 20.7507L14.3611 13.9645Z" fill="url(#paint2_linear_1275_2135)"/>
<path d="M14.3611 7.05867L2.12927 0.272505C1.4092 -0.121932 0.775992 -0.0739063 0.387695 0.324619L10.8246 10.5115L14.3611 7.05867Z" fill="url(#paint3_linear_1275_2135)"/>
<defs>
<linearGradient id="paint0_linear_1275_2135" x1="9.90392" y1="19.7411" x2="-3.81156" y2="5.69331" gradientUnits="userSpaceOnUse">
<stop stop-color="#00A0FF"/>
<stop offset="0.0066" stop-color="#00A1FF"/>
<stop offset="0.2601" stop-color="#00BEFF"/>
<stop offset="0.5122" stop-color="#00D2FF"/>
<stop offset="0.7604" stop-color="#00DFFF"/>
<stop offset="1" stop-color="#00E3FF"/>
</linearGradient>
<linearGradient id="paint1_linear_1275_2135" x1="19.9805" y1="10.5107" x2="-0.279447" y2="10.5107" gradientUnits="userSpaceOnUse">
<stop stop-color="#FFE000"/>
<stop offset="0.4087" stop-color="#FFBD00"/>
<stop offset="0.7754" stop-color="#FFA500"/>
<stop offset="1" stop-color="#FF9C00"/>
</linearGradient>
<linearGradient id="paint2_linear_1275_2135" x1="12.4381" y1="8.63464" x2="-6.16123" y2="-10.4153" gradientUnits="userSpaceOnUse">
<stop stop-color="#FF3A44"/>
<stop offset="1" stop-color="#C31162"/>
</linearGradient>
<linearGradient id="paint3_linear_1275_2135" x1="-2.23949" y1="26.7173" x2="6.06593" y2="18.2107" gradientUnits="userSpaceOnUse">
<stop stop-color="#32A071"/>
<stop offset="0.0685" stop-color="#2DA771"/>
<stop offset="0.4762" stop-color="#15CF74"/>
<stop offset="0.8009" stop-color="#06E775"/>
<stop offset="1" stop-color="#00F076"/>
</linearGradient>
</defs>
</svg>
