<?xml version="1.0" encoding="UTF-8"?>
<svg xmlns="http://www.w3.org/2000/svg" xmlns:xlink="http://www.w3.org/1999/xlink" viewBox="0 0 20 20" width="20px" height="20px">
<g id="surface8307087">
<path style=" stroke:none;fill-rule:nonzero;fill:rgb(100%,100%,100%);fill-opacity:1;" d="M 10 2.667969 C 7.210938 2.667969 3.585938 3.367188 3.585938 3.367188 L 3.578125 3.375 C 2.308594 3.578125 1.332031 4.671875 1.332031 6 L 1.332031 14 C 1.335938 15.3125 2.289062 16.425781 3.585938 16.628906 L 3.585938 16.632812 C 3.585938 16.632812 7.210938 17.335938 10 17.335938 C 12.789062 17.335938 16.414062 16.632812 16.414062 16.632812 C 17.710938 16.429688 18.664062 15.3125 18.667969 14 L 18.667969 6 C 18.664062 4.6875 17.710938 3.574219 16.414062 3.371094 L 16.414062 3.367188 C 16.414062 3.367188 12.789062 2.667969 10 2.667969 Z M 8 6.933594 L 13.332031 10 L 8 13.066406 Z M 8 6.933594 "/>
</g>
</svg>
